<?xml version="1.0" encoding="iso-8859-1"?>
<!-- Generator: Adobe Illustrator 19.0.0, SVG Export Plug-In . SVG Version: 6.00 Build 0)  -->
<svg xmlns="http://www.w3.org/2000/svg" xmlns:xlink="http://www.w3.org/1999/xlink" version="1.1" id="Capa_1" x="0px" y="0px" viewBox="0 0 512 512" style="enable-background:new 0 0 512 512;" xml:space="preserve" width="512px" height="512px">
<g>
	<g>
		<path d="M310.392,101.976c-4.275-44.767-27.227-64.899-49.422-84.369c-2.812-2.465-7.009-2.484-9.841-0.043    c-2.833,2.44-3.435,6.595-1.412,9.739c7.759,12.062,12.284,25.808,13.833,42.025c3.708,38.829-12.407,59.962-29.468,82.336    c-18.063,23.688-36.741,48.18-32.474,92.858c4.274,44.763,27.219,64.894,49.408,84.361c1.415,1.241,3.18,1.862,4.946,1.862    c1.743,0,3.487-0.605,4.895-1.817c2.833-2.439,3.436-6.594,1.414-9.738c-7.75-12.056-12.271-25.801-13.82-42.021    c-3.708-38.829,12.407-59.962,29.468-82.335C295.982,171.147,314.659,146.654,310.392,101.976z M233.518,278.595    c0.459,4.816,1.152,9.45,2.083,13.919c-9.702-12.296-16.959-27.4-19.063-49.418c-3.708-38.829,12.408-59.962,29.469-82.336    c18.064-23.686,36.741-48.178,32.474-92.857c-0.459-4.814-1.152-9.448-2.084-13.916c9.703,12.296,16.96,27.398,19.063,49.415    c3.708,38.83-12.408,59.963-29.469,82.337C247.928,209.426,229.252,233.918,233.518,278.595z" fill="#563c3d"/>
	</g>
</g>
<g>
	<g>
		<path d="M207.392,101.977c-4.275-44.767-27.227-64.899-49.422-84.369c-2.812-2.465-7.009-2.484-9.841-0.043    c-2.833,2.44-3.435,6.595-1.412,9.739c7.759,12.062,12.284,25.808,13.833,42.025c3.708,38.829-12.407,59.962-29.468,82.336    c-18.063,23.687-36.74,48.179-32.473,92.857c4.273,44.763,27.218,64.894,49.407,84.362c1.415,1.241,3.18,1.862,4.946,1.862    c1.743,0,3.487-0.605,4.895-1.817c2.833-2.439,3.436-6.594,1.414-9.738c-7.75-12.056-12.271-25.801-13.82-42.021    c-3.708-38.829,12.407-59.962,29.468-82.335C192.982,171.148,211.659,146.655,207.392,101.977z M130.519,278.596    c0.459,4.816,1.152,9.45,2.083,13.919c-9.702-12.296-16.959-27.4-19.063-49.418c-3.707-38.829,12.408-59.962,29.47-82.336    c18.062-23.687,36.739-48.179,32.473-92.857c-0.459-4.814-1.152-9.448-2.084-13.916c9.703,12.296,16.96,27.398,19.063,49.415    c3.708,38.83-12.408,59.963-29.469,82.337C144.929,209.427,126.253,233.919,130.519,278.596z" fill="#563c3d"/>
	</g>
</g>
<g>
	<g>
		<path d="M413.392,101.976c-4.275-44.767-27.227-64.899-49.422-84.369c-2.812-2.465-7.009-2.484-9.841-0.043    c-2.833,2.44-3.435,6.595-1.412,9.739c7.759,12.062,12.284,25.808,13.833,42.025c3.708,38.829-12.407,59.962-29.468,82.336    c-18.063,23.688-36.741,48.18-32.474,92.858c4.274,44.763,27.219,64.894,49.408,84.361c1.415,1.241,3.18,1.862,4.946,1.862    c1.743,0,3.487-0.605,4.895-1.817c2.833-2.439,3.436-6.594,1.414-9.738c-7.75-12.056-12.271-25.801-13.82-42.021    c-3.708-38.829,12.407-59.962,29.468-82.335C398.982,171.147,417.659,146.654,413.392,101.976z M336.518,278.595    c0.459,4.816,1.152,9.45,2.083,13.919c-9.702-12.296-16.959-27.4-19.063-49.418c-3.708-38.829,12.408-59.962,29.469-82.336    c18.064-23.686,36.741-48.178,32.474-92.857c-0.459-4.814-1.152-9.448-2.084-13.916c9.703,12.296,16.96,27.398,19.063,49.415    c3.708,38.83-12.408,59.963-29.469,82.337C350.928,209.426,332.252,233.918,336.518,278.595z" fill="#563c3d"/>
	</g>
</g>
<g>
	<g>
		<path d="M445.336,286.625c-3.245-1.727-7.264-0.847-9.49,2.077c-2.227,2.925-2.006,7.032,0.522,9.701    C446.741,309.355,452,320.838,452,332.531c0,21.493-17.977,42.434-50.619,58.962c-34.167,17.301-80.562,27.779-130.64,29.505    c-4.14,0.143-7.38,3.613-7.237,7.753c0.143,4.141,3.605,7.426,7.754,7.237C382.849,432.144,467,387.667,467,332.531    c0-5.302-0.762-10.523-2.277-15.646C485.731,333.48,497,352.223,497,371.254c0,28.323-24.324,55.422-68.49,76.306    c-45.954,21.728-107.219,33.694-172.51,33.694S129.443,469.287,83.49,447.56C39.324,426.676,15,399.577,15,371.254    c0-19.031,11.269-37.773,32.277-54.369C45.762,322.008,45,327.23,45,332.531c0,55.136,84.151,99.612,195.742,103.457    c4.157,0.183,7.611-3.098,7.754-7.237c0.143-4.139-3.098-7.61-7.237-7.753c-50.078-1.726-96.473-12.204-130.64-29.505    C77.977,374.965,60,354.024,60,332.531c0-11.693,5.259-23.176,15.632-34.128c2.528-2.669,2.749-6.776,0.522-9.701    c-2.227-2.924-6.245-3.804-9.49-2.077C23.675,309.5,0,339.556,0,371.254c0,34.449,27.374,66.363,77.078,89.865    c47.917,22.657,111.459,35.135,178.922,35.135s131.005-12.478,178.922-35.135C484.626,437.617,512,405.703,512,371.254    C512,339.556,488.325,309.5,445.336,286.625z" fill="#563c3d"/>
	</g>
</g>
<g>
</g>
<g>
</g>
<g>
</g>
<g>
</g>
<g>
</g>
<g>
</g>
<g>
</g>
<g>
</g>
<g>
</g>
<g>
</g>
<g>
</g>
<g>
</g>
<g>
</g>
<g>
</g>
<g>
</g>
</svg>
